# xmcd
# 
# Track frame offsets:
#     150
#     23500
#     48752
#     72915
#     95475
#     122012
#     146360
#     170680
# 
# Disc length: 2375
# 
# Revision: 2
# Processed by: cddbd v1.5.2PL0 Copyright (c) Steve Scherf et al.
# Submitted via: fre:ac v1.1beta1pre5
# 
DISCID=62094508
DTITLE=Tátrai Band - Utazás az ismeretlenbe II.
DYEAR=1994
DGENRE=Jazz
TTITLE0=Barátok között
TTITLE1=Nosztalgia
TTITLE2=Menekülés minden utazás
TTITLE3=Zárva az ajtó
TTITLE4=Ezüst fák
TTITLE5=Már csak álom vagy
TTITLE6=Valami fogva tart
TTITLE7=Az utolsó vonat
EXTD=
EXTT0=
EXTT1=
EXTT2=
EXTT3=
EXTT4=
EXTT5=
EXTT6=
EXTT7=
PLAYORDER=
